<svg xmlns="http://www.w3.org/2000/svg" width="500" height="500" preserveAspectRatio="none">
  <rect width="100%" height="100%" fill="#1E1F22"/>
  <svg xmlns="http://www.w3.org/2000/svg" xmlns:xlink="http://www.w3.org/1999/xlink" width="417" height="72.00922793" x="41.5" y="213.9954" preserveAspectRatio="none" viewBox="867.6667 494.1991 392.3305 67.7492">
    <style>
      .icon3fc4b1ab8-724d-4288-8f8c-44180589053b{fill:#f55139;fill-opacity:1}
    </style>
    <svg width="380" height="17.462" x="867.6667" y="544.4863" preserveAspectRatio="none" viewBox="-.04 -30.28 833.04 38.28">
      <g class="icon3fc4b1ab8-724d-4288-8f8c-44180589053b">
        <path id="id-fc4b1ab8-724d-4288-8f8c-44180589053b6izo4zJp38" d="m25.12 0-3.08-7H7.16L4.08 0H-.04l12.68-28h3.96L29.32 0h-4.2ZM8.56-10.2h12.08L14.6-23.92 8.56-10.2Zm29.24-7.44q1-1.84 2.96-2.8 1.96-.96 4.76-.96v3.72q-.32-.04-.88-.04-3.12 0-4.9 1.86-1.78 1.86-1.78 5.3V0h-3.84v-21.2h3.68v3.56ZM63.04-4l1.2 2.76q-.84.72-2.08 1.1-1.24.38-2.56.38-3.2 0-4.96-1.72-1.76-1.72-1.76-4.92v-11.64h-3.6v-3.16h3.6v-4.64h3.84v4.64h6.08v3.16h-6.08v11.48q0 1.72.86 2.64.86.92 2.46.92 1.76 0 3-1Zm7.04 4v-21.2h3.84V0h-3.84ZM72-25.28q-1.12 0-1.86-.72t-.74-1.76q0-1.04.74-1.78t1.86-.74q1.12 0 1.86.7t.74 1.74q0 1.08-.74 1.82t-1.86.74ZM88.52.24q-2.6 0-5-.7t-3.76-1.78l1.6-3.04q1.4 1 3.4 1.6 2 .6 4.04.6 5.04 0 5.04-2.88 0-.96-.68-1.52t-1.7-.82q-1.02-.26-2.9-.58-2.56-.4-4.18-.92-1.62-.52-2.78-1.76-1.16-1.24-1.16-3.48 0-2.88 2.4-4.62 2.4-1.74 6.44-1.74 2.12 0 4.24.52t3.48 1.4l-1.64 3.04q-2.6-1.68-6.12-1.68-2.44 0-3.72.8-1.28.8-1.28 2.12 0 1.04.72 1.64.72.6 1.78.88t2.98.64q2.56.44 4.14.94 1.58.5 2.7 1.7t1.12 3.36q0 2.88-2.46 4.58-2.46 1.7-6.7 1.7ZM114.4-4l1.2 2.76q-.84.72-2.08 1.1-1.24.38-2.56.38-3.2 0-4.96-1.72-1.76-1.72-1.76-4.92v-11.64h-3.6v-3.16h3.6v-4.64h3.84v4.64h6.08v3.16h-6.08v11.48q0 1.72.86 2.64.86.92 2.46.92 1.76 0 3-1Zm8.4-1.24q1.12 0 1.86.78t.74 1.94q0 .6-.14 1.16-.14.56-.54 1.72l-1.88 5.56h-2.52l1.48-5.96q-.76-.28-1.22-.94-.46-.66-.46-1.54 0-1.2.76-1.96t1.92-.76ZM155.56-28q5.44 0 8.56 2.6t3.12 7.16q0 4.56-3.12 7.16-3.12 2.6-8.56 2.6h-6.92V0h-4v-28h10.92Zm-.12 16.04q3.8 0 5.8-1.62t2-4.66q0-3.04-2-4.66t-5.8-1.62h-6.8v12.56h6.8Zm21.64-5.68q1-1.84 2.96-2.8 1.96-.96 4.76-.96v3.72q-.32-.04-.88-.04-3.12 0-4.9 1.86-1.78 1.86-1.78 5.3V0h-3.84v-21.2h3.68v3.56ZM199.6.24q-3.16 0-5.68-1.4-2.52-1.4-3.94-3.86t-1.42-5.58q0-3.12 1.42-5.58t3.94-3.84q2.52-1.38 5.68-1.38 3.16 0 5.66 1.38t3.92 3.84q1.42 2.46 1.42 5.58t-1.42 5.58q-1.42 2.46-3.92 3.86T199.6.24Zm0-3.36q2.04 0 3.66-.94t2.54-2.64q.92-1.7.92-3.9t-.92-3.9q-.92-1.7-2.54-2.62-1.62-.92-3.66-.92t-3.66.92q-1.62.92-2.56 2.62-.94 1.7-.94 3.9t.94 3.9q.94 1.7 2.56 2.64 1.62.94 3.66.94Zm33.68-26.56h3.84V0h-3.68v-3.36q-1.28 1.76-3.24 2.68-1.96.92-4.32.92-3.08 0-5.52-1.36-2.44-1.36-3.82-3.82t-1.38-5.66q0-3.2 1.38-5.64 1.38-2.44 3.82-3.8 2.44-1.36 5.52-1.36 2.28 0 4.2.86 1.92.86 3.2 2.54v-11.68ZM226.2-3.12q2 0 3.64-.94 1.64-.94 2.56-2.64.92-1.7.92-3.9t-.92-3.9q-.92-1.7-2.56-2.62-1.64-.92-3.64-.92-2.04 0-3.66.92t-2.56 2.62q-.94 1.7-.94 3.9t.94 3.9q.94 1.7 2.56 2.64 1.62.94 3.66.94Zm35.32-18.08h3.84V0h-3.64v-3.2q-1.16 1.64-3.06 2.54-1.9.9-4.14.9-4.24 0-6.68-2.34-2.44-2.34-2.44-6.9v-12.2h3.84v11.76q0 3.08 1.48 4.66t4.24 1.58q3.04 0 4.8-1.84 1.76-1.84 1.76-5.2V-21.2ZM283.12.24q-3.24 0-5.78-1.4t-3.98-3.86q-1.44-2.46-1.44-5.58t1.44-5.58q1.44-2.46 3.98-3.84t5.78-1.38q2.88 0 5.14 1.16t3.5 3.36L288.84-15q-1-1.52-2.48-2.28-1.48-.76-3.28-.76-2.08 0-3.74.92-1.66.92-2.6 2.62-.94 1.7-.94 3.9 0 2.24.94 3.94.94 1.7 2.6 2.62 1.66.92 3.74.92 1.8 0 3.28-.76 1.48-.76 2.48-2.28l2.92 1.84q-1.24 2.2-3.5 3.38Q286 .24 283.12.24Zm33.64-10.72q0 .44-.08 1.16h-17.2q.36 2.8 2.46 4.5 2.1 1.7 5.22 1.7 3.8 0 6.12-2.56l2.12 2.48q-1.44 1.68-3.58 2.56-2.14.88-4.78.88-3.36 0-5.96-1.38T297.06-5q-1.42-2.48-1.42-5.6 0-3.08 1.38-5.56 1.38-2.48 3.8-3.86t5.46-1.38q3.04 0 5.42 1.38t3.72 3.86q1.34 2.48 1.34 5.68Zm-10.48-7.68q-2.76 0-4.62 1.68-1.86 1.68-2.18 4.4h13.6q-.32-2.68-2.18-4.38-1.86-1.7-4.62-1.7Zm20.68.52q1-1.84 2.96-2.8 1.96-.96 4.76-.96v3.72q-.32-.04-.88-.04-3.12 0-4.9 1.86-1.78 1.86-1.78 5.3V0h-3.84v-21.2h3.68v3.56Zm14.48 12.4q1.12 0 1.86.78t.74 1.94q0 .6-.14 1.16-.14.56-.54 1.72l-1.88 5.56h-2.52l1.48-5.96q-.76-.28-1.22-.94-.46-.66-.46-1.54 0-1.2.76-1.96t1.92-.76Zm30 5.56q-3.16 0-6.1-.98-2.94-.98-4.62-2.54l1.48-3.12q1.6 1.44 4.1 2.34 2.5.9 5.14.9 3.48 0 5.2-1.18 1.72-1.18 1.72-3.14 0-1.44-.94-2.34-.94-.9-2.32-1.38-1.38-.48-3.9-1.08-3.16-.76-5.1-1.52-1.94-.76-3.32-2.34-1.38-1.58-1.38-4.26 0-2.24 1.18-4.04 1.18-1.8 3.58-2.88 2.4-1.08 5.96-1.08 2.48 0 4.88.64t4.12 1.84l-1.32 3.2q-1.76-1.12-3.76-1.7-2-.58-3.92-.58-3.4 0-5.1 1.24-1.7 1.24-1.7 3.2 0 1.44.96 2.34.96.9 2.38 1.4 1.42.5 3.86 1.06 3.16.76 5.08 1.52t3.3 2.32q1.38 1.56 1.38 4.2 0 2.2-1.2 4.02-1.2 1.82-3.64 2.88-2.44 1.06-6 1.06Zm26.4-.08q-3.16 0-5.68-1.4-2.52-1.4-3.94-3.86t-1.42-5.58q0-3.12 1.42-5.58t3.94-3.84q2.52-1.38 5.68-1.38 3.16 0 5.66 1.38t3.92 3.84q1.42 2.46 1.42 5.58t-1.42 5.58Q406-2.56 403.5-1.16t-5.66 1.4Zm0-3.36q2.04 0 3.66-.94t2.54-2.64q.92-1.7.92-3.9t-.92-3.9q-.92-1.7-2.54-2.62-1.62-.92-3.66-.92t-3.66.92q-1.62.92-2.56 2.62-.94 1.7-.94 3.9t.94 3.9q.94 1.7 2.56 2.64 1.62.94 3.66.94Zm33.44-18.08h3.84V0h-3.64v-3.2q-1.16 1.64-3.06 2.54-1.9.9-4.14.9-4.24 0-6.68-2.34-2.44-2.34-2.44-6.9v-12.2H419v11.76q0 3.08 1.48 4.66t4.24 1.58q3.04 0 4.8-1.84 1.76-1.84 1.76-5.2V-21.2Zm23.68-.2q4.04 0 6.42 2.34t2.38 6.86V0h-3.84v-11.76q0-3.08-1.48-4.64-1.48-1.56-4.24-1.56-3.12 0-4.92 1.82-1.8 1.82-1.8 5.22V0h-3.84v-21.2h3.68v3.2q1.16-1.64 3.14-2.52 1.98-.88 4.5-.88Zm33.4-8.28h3.84V0h-3.68v-3.36q-1.28 1.76-3.24 2.68-1.96.92-4.32.92-3.08 0-5.52-1.36-2.44-1.36-3.82-3.82t-1.38-5.66q0-3.2 1.38-5.64 1.38-2.44 3.82-3.8 2.44-1.36 5.52-1.36 2.28 0 4.2.86 1.92.86 3.2 2.54v-11.68Zm-7.08 26.56q2 0 3.64-.94 1.64-.94 2.56-2.64.92-1.7.92-3.9t-.92-3.9q-.92-1.7-2.56-2.62-1.64-.92-3.64-.92-2.04 0-3.66.92t-2.56 2.62q-.94 1.7-.94 3.9t.94 3.9q.94 1.7 2.56 2.64 1.62.94 3.66.94ZM513.2 0v-28H525q4.44 0 7.88 1.76 3.44 1.76 5.34 4.94 1.9 3.18 1.9 7.3 0 4.12-1.9 7.3-1.9 3.18-5.34 4.94Q529.44 0 525 0h-11.8Zm4-3.48h7.56q3.4 0 5.98-1.32 2.58-1.32 3.98-3.7t1.4-5.5q0-3.12-1.4-5.5t-3.98-3.7q-2.58-1.32-5.98-1.32h-7.56v21.04Zm48.84-7q0 .44-.08 1.16h-17.2q.36 2.8 2.46 4.5 2.1 1.7 5.22 1.7 3.8 0 6.12-2.56l2.12 2.48q-1.44 1.68-3.58 2.56-2.14.88-4.78.88-3.36 0-5.96-1.38T546.34-5q-1.42-2.48-1.42-5.6 0-3.08 1.38-5.56 1.38-2.48 3.8-3.86t5.46-1.38q3.04 0 5.42 1.38t3.72 3.86q1.34 2.48 1.34 5.68Zm-10.48-7.68q-2.76 0-4.62 1.68-1.86 1.68-2.18 4.4h13.6q-.32-2.68-2.18-4.38-1.86-1.7-4.62-1.7ZM578.64.24q-2.6 0-5-.7t-3.76-1.78l1.6-3.04q1.4 1 3.4 1.6 2 .6 4.04.6 5.04 0 5.04-2.88 0-.96-.68-1.52t-1.7-.82q-1.02-.26-2.9-.58-2.56-.4-4.18-.92-1.62-.52-2.78-1.76-1.16-1.24-1.16-3.48 0-2.88 2.4-4.62 2.4-1.74 6.44-1.74 2.12 0 4.24.52t3.48 1.4l-1.64 3.04q-2.6-1.68-6.12-1.68-2.44 0-3.72.8-1.28.8-1.28 2.12 0 1.04.72 1.64.72.6 1.78.88t2.98.64q2.56.44 4.14.94 1.58.5 2.7 1.7t1.12 3.36q0 2.88-2.46 4.58-2.46 1.7-6.7 1.7ZM593.8 0v-21.2h3.84V0h-3.84Zm1.92-25.28q-1.12 0-1.86-.72t-.74-1.76q0-1.04.74-1.78t1.86-.74q1.12 0 1.86.7t.74 1.74q0 1.08-.74 1.82t-1.86.74Zm27.08 4.08h3.64v18.32q0 5.56-2.76 8.22Q620.92 8 615.44 8q-3 0-5.72-.82-2.72-.82-4.4-2.34l1.84-2.96q1.48 1.28 3.66 2.02t4.5.74q3.72 0 5.5-1.76 1.78-1.76 1.78-5.36v-1.68q-1.36 1.64-3.34 2.46-1.98.82-4.3.82-3.04 0-5.5-1.3t-3.86-3.64q-1.4-2.34-1.4-5.34t1.4-5.34q1.4-2.34 3.86-3.62 2.46-1.28 5.5-1.28 2.4 0 4.46.88t3.38 2.6v-3.28Zm-7.4 16.96q2.08 0 3.74-.88 1.66-.88 2.6-2.46.94-1.58.94-3.58 0-3.08-2.04-4.98-2.04-1.9-5.24-1.9-3.24 0-5.28 1.9t-2.04 4.98q0 2 .94 3.58t2.6 2.46q1.66.88 3.78.88Zm30.88-17.16q4.04 0 6.42 2.34t2.38 6.86V0h-3.84v-11.76q0-3.08-1.48-4.64-1.48-1.56-4.24-1.56-3.12 0-4.92 1.82-1.8 1.82-1.8 5.22V0h-3.84v-21.2h3.68v3.2q1.16-1.64 3.14-2.52 1.98-.88 4.5-.88Zm36.4 10.92q0 .44-.08 1.16h-17.2q.36 2.8 2.46 4.5 2.1 1.7 5.22 1.7 3.8 0 6.12-2.56l2.12 2.48q-1.44 1.68-3.58 2.56-2.14.88-4.78.88-3.36 0-5.96-1.38T662.98-5q-1.42-2.48-1.42-5.6 0-3.08 1.38-5.56 1.38-2.48 3.8-3.86t5.46-1.38q3.04 0 5.42 1.38t3.72 3.86q1.34 2.48 1.34 5.68Zm-10.48-7.68q-2.76 0-4.62 1.68-1.86 1.68-2.18 4.4H679q-.32-2.68-2.18-4.38-1.86-1.7-4.62-1.7Zm20.68.52q1-1.84 2.96-2.8 1.96-.96 4.76-.96v3.72q-.32-.04-.88-.04-3.12 0-4.9 1.86-1.78 1.86-1.78 5.3V0h-3.84v-21.2h3.68v3.56Zm14.48 12.4q1.12 0 1.86.78t.74 1.94q0 .6-.14 1.16-.14.56-.54 1.72l-1.88 5.56h-2.52l1.48-5.96q-.76-.28-1.22-.94-.46-.66-.46-1.54 0-1.2.76-1.96t1.92-.76Zm41.24.2v-9.12h3.84v10.92q-2.08 1.72-4.84 2.64-2.76.92-5.76.92-4.24 0-7.64-1.86-3.4-1.86-5.34-5.12T726.92-14q0-4.08 1.94-7.36 1.94-3.28 5.36-5.12 3.42-1.84 7.7-1.84 3.36 0 6.1 1.1 2.74 1.1 4.66 3.22l-2.48 2.48q-3.36-3.24-8.12-3.24-3.2 0-5.74 1.38t-3.98 3.84q-1.44 2.46-1.44 5.54 0 3.04 1.44 5.5t3.98 3.86q2.54 1.4 5.7 1.4 3.76 0 6.56-1.8Zm31.28-5.44q0 .44-.08 1.16h-17.2q.36 2.8 2.46 4.5 2.1 1.7 5.22 1.7 3.8 0 6.12-2.56l2.12 2.48q-1.44 1.68-3.58 2.56-2.14.88-4.78.88-3.36 0-5.96-1.38T760.18-5q-1.42-2.48-1.42-5.6 0-3.08 1.38-5.56 1.38-2.48 3.8-3.86t5.46-1.38q3.04 0 5.42 1.38t3.72 3.86q1.34 2.48 1.34 5.68Zm-10.48-7.68q-2.76 0-4.62 1.68-1.86 1.68-2.18 4.4h13.6q-.32-2.68-2.18-4.38-1.86-1.7-4.62-1.7Zm36.16 7.68q0 .44-.08 1.16h-17.2q.36 2.8 2.46 4.5 2.1 1.7 5.22 1.7 3.8 0 6.12-2.56l2.12 2.48q-1.44 1.68-3.58 2.56-2.14.88-4.78.88-3.36 0-5.96-1.38T785.86-5q-1.42-2.48-1.42-5.6 0-3.08 1.38-5.56 1.38-2.48 3.8-3.86t5.46-1.38q3.04 0 5.42 1.38t3.72 3.86q1.34 2.48 1.34 5.68Zm-10.48-7.68q-2.76 0-4.62 1.68-1.86 1.68-2.18 4.4h13.6q-.32-2.68-2.18-4.38-1.86-1.7-4.62-1.7ZM828.28 0l-7.96-9.88-4.4 4.08V0h-3.84v-29.68h3.84v19.04l11.56-10.56h4.64l-8.92 8.76L833 0h-4.72Z"/>
      </g>
    </svg>
    <svg width="333.6327" height="44.7471" x="926.3645" y="494.1991" preserveAspectRatio="none" viewBox="1.16 -30.8 250.52 33.6">
      <g fill="#ebe7d9">
        <path id="id-fc4b1ab8-724d-4288-8f8c-44180589053bD6z1nYkh7" d="M33-28 18.28-15.04 28 0h-7.28l-7.2-10.96-4.52 4L7.6 0H1.16l5.6-28h6.44l-2.56 12.84L25.16-28H33ZM52.28.48q-4.2 0-7.28-1.52t-4.72-4.28q-1.64-2.76-1.64-6.36 0-4.76 2.18-8.58 2.18-3.82 6.12-6.02 3.94-2.2 9.02-2.2 4.2 0 7.28 1.52t4.72 4.28q1.64 2.76 1.64 6.36 0 4.76-2.18 8.58-2.18 3.82-6.12 6.02-3.94 2.2-9.02 2.2Zm.56-5.52q3.08 0 5.4-1.48Q60.56-8 61.8-10.48q1.24-2.48 1.24-5.48 0-3.2-2-5.1-2-1.9-5.64-1.9-3.08 0-5.4 1.48-2.32 1.48-3.56 3.96-1.24 2.48-1.24 5.48 0 3.2 2 5.1 2 1.9 5.64 1.9ZM36.64 2.8l30.6-33.6h4.32L41 2.8h-4.36ZM104.32-28h6.48l-5.6 28h-6.48L101-11.4H88.32L86.04 0h-6.52l5.6-28h6.52l-2.2 11h12.68l2.2-11Zm15.52 28 5.6-28h6.52L127.4-5.28h14.04L140.36 0h-20.52Zm59.2-28L164.48-9.72 162.56 0h-6.48l1.96-10-7.2-18h6.48l5 12.48L172.36-28h6.68Zm4.84 28 5.6-28h11.72q4.28 0 7.38 1.42 3.1 1.42 4.76 4.06 1.66 2.64 1.66 6.2 0 4.88-2.2 8.58t-6.14 5.72Q202.72 0 197.56 0h-13.68Zm7.56-5.32h6.32q3.28 0 5.7-1.38 2.42-1.38 3.7-3.8 1.28-2.42 1.28-5.46 0-3.16-2.04-4.94-2.04-1.78-5.92-1.78h-5.56l-3.48 17.36ZM250.6-22.8h-14.68l-1.2 6.08h13l-1 5.04h-13.04L232.4-5.2h15.28L246.6 0h-21.68l5.6-28h21.16l-1.08 5.2Z"/>
      </g>
    </svg>
    <svg width="51.9906" height="41.576" x="867.6667" y="494.1991" preserveAspectRatio="none" viewBox="-4.6 -33.68 47.12 37.68">
      <g class="icon3fc4b1ab8-724d-4288-8f8c-44180589053b">
        <path id="id-fc4b1ab8-724d-4288-8f8c-44180589053bhTdFi603-2" d="m-4.6 4 20.48-37.68h8.24L3.64 4H-4.6Zm18.4 0 20.48-37.68h8.24L22.04 4H13.8Z"/>
      </g>
    </svg>
  </svg>
</svg>